<svg xmlns="http://www.w3.org/2000/svg" width="48" height="45.62" viewBox="0 0 48 45.62">
  <defs>
    <linearGradient id="gallery-frame" x1="6.6" y1="7.1" x2="41.8" y2="41.8" gradientUnits="userSpaceOnUse">
      <stop offset="0" stop-color="#f7fbff"/>
      <stop offset="0.18" stop-color="#aab7c4"/>
      <stop offset="0.44" stop-color="#f9fbfd"/>
      <stop offset="0.68" stop-color="#596a7b"/>
      <stop offset="1" stop-color="#1e2a37"/>
    </linearGradient>
    <linearGradient id="gallery-frame-inner" x1="8.9" y1="9.7" x2="39.7" y2="39.2" gradientUnits="userSpaceOnUse">
      <stop offset="0" stop-color="#dfe8ef"/>
      <stop offset="0.48" stop-color="#6f8292"/>
      <stop offset="1" stop-color="#253543"/>
    </linearGradient>
    <linearGradient id="gallery-back-card" x1="8" y1="3.9" x2="34.4" y2="29.6" gradientUnits="userSpaceOnUse">
      <stop offset="0" stop-color="#f5f8fb"/>
      <stop offset="0.35" stop-color="#9dacb8"/>
      <stop offset="0.68" stop-color="#e8eef4"/>
      <stop offset="1" stop-color="#4b5d6d"/>
    </linearGradient>
    <linearGradient id="gallery-mid-card" x1="12" y1="4.9" x2="42.4" y2="32" gradientUnits="userSpaceOnUse">
      <stop offset="0" stop-color="#fff6dd"/>
      <stop offset="0.36" stop-color="#d7a75d"/>
      <stop offset="0.74" stop-color="#fff1c9"/>
      <stop offset="1" stop-color="#744d26"/>
    </linearGradient>
    <linearGradient id="gallery-photo" x1="10.2" y1="12.6" x2="37.7" y2="38.8" gradientUnits="userSpaceOnUse">
      <stop offset="0" stop-color="#8ee9ff"/>
      <stop offset="0.3" stop-color="#2c8fd8"/>
      <stop offset="0.72" stop-color="#174b8f"/>
      <stop offset="1" stop-color="#12264f"/>
    </linearGradient>
    <linearGradient id="gallery-photo-gloss" x1="10.1" y1="12.9" x2="36.7" y2="35.9" gradientUnits="userSpaceOnUse">
      <stop offset="0" stop-color="#ffffff" stop-opacity="0.88"/>
      <stop offset="0.24" stop-color="#ffffff" stop-opacity="0.36"/>
      <stop offset="0.55" stop-color="#ffffff" stop-opacity="0.05"/>
      <stop offset="1" stop-color="#ffffff" stop-opacity="0"/>
    </linearGradient>
    <linearGradient id="gallery-hill" x1="8.7" y1="25.1" x2="39.9" y2="38.9" gradientUnits="userSpaceOnUse">
      <stop offset="0" stop-color="#66d39a"/>
      <stop offset="0.4" stop-color="#249564"/>
      <stop offset="1" stop-color="#0b4e53"/>
    </linearGradient>
    <radialGradient id="gallery-sun" cx="33.4" cy="19.4" r="7.1" gradientUnits="userSpaceOnUse">
      <stop offset="0" stop-color="#fff9c1"/>
      <stop offset="0.55" stop-color="#ffc44e"/>
      <stop offset="1" stop-color="#d96e22"/>
    </radialGradient>
    <linearGradient id="gallery-bottom-edge" x1="8.3" y1="34.8" x2="40.6" y2="42.7" gradientUnits="userSpaceOnUse">
      <stop offset="0" stop-color="#182838"/>
      <stop offset="0.36" stop-color="#8398a8"/>
      <stop offset="1" stop-color="#0c1724"/>
    </linearGradient>
    <filter id="gallery-shadow" x="-18%" y="-18%" width="136%" height="146%" color-interpolation-filters="sRGB">
      <feDropShadow dx="0" dy="1.5" stdDeviation="1.35" flood-color="#050b15" flood-opacity="0.46"/>
      <feDropShadow dx="0" dy="0.25" stdDeviation="0.35" flood-color="#ffffff" flood-opacity="0.36"/>
    </filter>
    <clipPath id="gallery-photo-clip">
      <rect x="8.7" y="12.1" width="31.8" height="25.8" rx="3.7"/>
    </clipPath>
  </defs>

  <ellipse cx="24.2" cy="41.7" rx="17.6" ry="3.2" fill="#06101d" opacity="0.36"/>

  <g filter="url(#gallery-shadow)">
    <rect
      x="6.5"
      y="4.4"
      width="31.7"
      height="25.6"
      rx="4.6"
      fill="url(#gallery-back-card)"
      stroke="#f8fbff"
      stroke-width="1.15"
      transform="rotate(-9 22.3 17.2)"
    />
    <rect
      x="10.6"
      y="5.9"
      width="31.8"
      height="25.8"
      rx="4.6"
      fill="url(#gallery-mid-card)"
      stroke="#fff6d5"
      stroke-width="1.15"
      transform="rotate(7 26.5 18.8)"
    />

    <rect x="5.1" y="9.2" width="38.8" height="33.1" rx="5.6" fill="url(#gallery-frame)"/>
    <rect x="7.1" y="11.1" width="34.8" height="29.2" rx="4.5" fill="url(#gallery-frame-inner)"/>
    <rect x="8.7" y="12.1" width="31.8" height="25.8" rx="3.7" fill="url(#gallery-photo)"/>

    <g clip-path="url(#gallery-photo-clip)">
      <circle cx="33.4" cy="19.4" r="5.7" fill="url(#gallery-sun)"/>
      <path
        d="M8.5 31.1c4-4.9 6.5-7.5 7.8-7.7 1.9-.3 4.1 3.1 6.1 2.8 2.1-.4 3.5-4 5.8-3.8 2.6.3 5 5.4 12.4 3.1v12.4H8.5z"
        fill="url(#gallery-hill)"
      />
      <path d="M8.5 33.6c5.6-2.8 10.4-4.1 14.3-3.8 6.4.5 10.6 4.4 17.8 1.2v6.9H8.5z" fill="#0c6376" opacity="0.68"/>
      <path d="M10.9 14.6h26.2c-7.5 3.2-16.7 5-28.4 5.7v-5.2c0-0.6.5-1.1 1.2-1.1z" fill="url(#gallery-photo-gloss)"/>
      <path d="M16.9 12.1h13.7c-4.8 1.7-9.4 2.7-13.7 3z" fill="#ffffff" opacity="0.38"/>
    </g>

    <rect x="8.7" y="12.1" width="31.8" height="25.8" rx="3.7" fill="none" stroke="#eff8ff" stroke-width="0.9" opacity="0.9"/>
    <path d="M8.2 36.5h33.1c-.6 2.1-2 3.5-4.3 4.2H12.5c-2.2-.8-3.6-2.2-4.3-4.2z" fill="url(#gallery-bottom-edge)" opacity="0.72"/>
    <path d="M8.1 10.6h29.7c2.6 0 4.7 2 4.7 4.4v.7c-2.2-2.1-4.9-3.2-8.3-3.2H8.7c-.9 0-1.6.7-1.6 1.6v22.1c0 1.3.4 2.4 1.3 3.3-1.8-.8-2.9-2.4-2.9-4.6V14.2c0-2 1.5-3.6 3.6-3.6z" fill="#ffffff" opacity="0.22"/>
    <rect x="5.1" y="9.2" width="38.8" height="33.1" rx="5.6" fill="none" stroke="#0c1723" stroke-width="1" opacity="0.55"/>
    <rect x="5.8" y="9.9" width="37.4" height="31.7" rx="5" fill="none" stroke="#ffffff" stroke-width="0.8" opacity="0.52"/>
  </g>
</svg>
