<svg xmlns="http://www.w3.org/2000/svg" viewBox="0 0 24 24" fill="#fff" width="48" height="48">
  <path d="M12 2C6.477 2 2 6.477 2 12s4.477 10 10 10 10-4.477 10-10S17.523 2 12 2zm6.918 6h-3.215a15.89 15.89 0 0 0-1.395-3.72A8.027 8.027 0 0 1 18.918 8zM12 4.04c.783 1.057 1.398 2.242 1.81 3.52h-3.62c.412-1.278 1.027-2.463 1.81-3.52zM4.26 14a7.822 7.822 0 0 1 0-4h3.594a16.455 16.455 0 0 0 0 4H4.26zm.822 2h3.215a15.89 15.89 0 0 0 1.395 3.72A8.027 8.027 0 0 1 5.082 16zM8.297 8H5.082a8.027 8.027 0 0 1 4.61-3.72A15.89 15.89 0 0 0 8.297 8zM12 19.96c-.783-1.057-1.398-2.242-1.81-3.52h3.62c-.412 1.278-1.027 2.463-1.81 3.52zM14.19 14H9.81a14.486 14.486 0 0 1 0-4h4.38a14.486 14.486 0 0 1 0 4zm.118 5.72A15.89 15.89 0 0 0 15.703 16h3.215a8.027 8.027 0 0 1-4.61 3.72zM16.146 14a16.455 16.455 0 0 0 0-4h3.594a7.822 7.822 0 0 1 0 4h-3.594z"/>
</svg>
